<?xml version="1.0" encoding="UTF-8"?>
<svg width="251px" height="247px" viewBox="0 0 251 247" version="1.1" xmlns="http://www.w3.org/2000/svg" xmlns:xlink="http://www.w3.org/1999/xlink">
    <title>Group 36</title>
    <defs>
        <polygon id="path-1" points="0 0 52 0 52 89 0 89"></polygon>
        <polygon id="path-3" points="0 247 251 247 251 0 0 0"></polygon>
    </defs>
    <g id="Homepage" stroke="none" stroke-width="1" fill="none" fill-rule="evenodd">
        <g id="homepage" transform="translate(-568.000000, -2792.000000)">
            <g id="icons---gifs---active-" transform="translate(0.000000, 2466.000000)">
                <g id="Group-36" transform="translate(568.000000, 326.000000)">
                    <g id="Group-3" transform="translate(0.000000, 32.000000)">
                        <mask id="mask-2" fill="white">
                            <use xlink:href="#path-1"></use>
                        </mask>
                        <g id="Clip-2"></g>
                        <path d="M48.8423967,89 L38.1922043,88.0418197 C38.2178057,87.7656801 40.5651363,62.1780714 41.1971714,51.3366286 C40.4467297,51.3057706 39.3610693,51.3215953 37.8177835,51.4505659 C34.9632247,51.6895175 31.6054379,52.2172684 28.0492401,52.7758772 C16.9686238,54.5157935 7.39849151,56.0183405 2.535021,51.2084493 C-2.25004515,46.4760986 -0.361140087,37.5375657 9.05538367,20.357574 C14.7845023,9.90541682 21.1768579,0.39878026 21.4464729,0 L30.3445678,5.86618422 C30.2901648,5.94688975 24.8066598,14.1021043 19.6311719,23.2851275 C12.369968,36.1703191 10.9650899,41.7192198 10.7250765,43.7313194 C11.5275212,43.8515865 12.9508003,43.9449517 15.3437334,43.778002 C18.6095151,43.5493363 22.5561346,42.9290115 26.3723469,42.3300499 C37.8713865,40.5236702 45.1333904,39.6058427 49.3584254,43.3262093 C51.1609256,44.9142093 52.0961777,47.1510184 51.9921719,49.6259879 C51.59935,58.9435204 48.9544029,87.7767574 48.8423967,89" id="Fill-1" fill="#131313" mask="url(#mask-2)"></path>
                    </g>
                    <path d="M80.157602,121 C80.0447958,119.776757 77.4006498,90.9435204 77.0078281,81.6259879 C76.9038224,79.1510184 77.839074,76.9142093 79.6415735,75.3262093 C83.8674067,71.6058427 91.1294076,72.5236702 102.627642,74.3300499 C106.443853,74.9290115 110.390471,75.5493363 113.656251,75.778002 C116.049183,75.9449517 117.472462,75.8515865 118.274906,75.7313194 C118.034893,73.7192198 116.630015,68.1703191 109.368814,55.2851275 C104.193329,46.1021043 98.709826,37.9468898 98.655423,37.8661842 L107.553514,32 C107.823129,32.3987803 114.215482,41.9054168 119.944598,52.357574 C129.361118,69.5375657 131.250022,78.4760986 126.464958,83.2084493 C121.60149,88.0183405 112.031361,86.5157935 100.95075,84.7758772 C97.3945534,84.2172684 94.035968,83.6895175 91.1822105,83.4505659 C89.6389253,83.3215953 88.5532654,83.3057706 87.802824,83.3366286 C88.4348589,94.1780714 90.7821884,119.76568 90.8077898,120.04182 L80.157602,121 Z" id="Fill-4" fill="#131313"></path>
                    <polygon id="Fill-6" fill="#131313" points="89.7744653 45 79 43.9361099 82.6333441 8 119 11.5911294 117.923364 22.2380355 92.3319831 19.7115967"></polygon>
                    <polygon id="Fill-8" fill="#131313" points="45.7455457 51 34.9808091 50.3082537 36.5671573 23.80358 11 22.1599506 11.668106 11 48 13.3370486"></polygon>
                    <mask id="mask-4" fill="white">
                        <use xlink:href="#path-3"></use>
                    </mask>
                    <g id="Clip-11"></g>
                    <polygon id="Fill-10" fill="#131313" mask="url(#mask-4)" points="30 68 96 68 96 58 30 58"></polygon>
                    <polygon id="Fill-12" fill="#131313" mask="url(#mask-4)" points="58 121 68 121 68 64 58 64"></polygon>
                    <polygon id="Fill-13" fill="#131313" mask="url(#mask-4)" points="162 191 228 191 228 181 162 181"></polygon>
                    <polygon id="Fill-14" fill="#131313" mask="url(#mask-4)" points="190 245 200 245 200 188 190 188"></polygon>
                    <path d="M188.143595,121 C188.031298,119.773384 185.3983,90.860635 185.007253,81.5174081 C184.913274,79.2601492 185.73519,77.1322165 187.321679,75.5271428 C191.297459,71.5045409 198.694702,71.4886726 210.431694,71.7925496 C213.924837,71.8837921 217.536648,71.9774148 220.465122,71.839361 C222.381333,71.7489119 223.598278,71.5767414 224.350108,71.4196457 L224.349312,71.2006638 C224.314269,56.3924108 224.287987,45.6932417 223.6604,38.5057168 C223.039184,31.39912 221.901085,29.0458582 221.055276,28.3214725 C219.439319,26.9393477 212.928503,27.9176255 208.619815,28.5642567 L207.034123,18.0769288 C215.078068,16.8701482 222.674419,15.7292209 227.989794,20.2754751 C232.514314,24.1449485 233.680288,30.881815 234.265664,37.5861516 C234.933073,45.2195743 234.958558,56.1067822 234.995194,71.1752746 L235,73.2548091 C235.005548,75.3882956 234.158942,77.3892822 232.615461,78.8912123 C228.721713,82.6797575 221.544284,82.6908653 210.15374,82.3949224 C206.556265,82.3012997 202.836139,82.2045034 199.804926,82.3568386 C197.770047,82.4599822 196.501333,82.6543683 195.731185,82.8281257 C196.323729,93.4503338 198.720188,119.759103 198.745674,120.039177 L188.143595,121 Z" id="Fill-15" fill="#131313" mask="url(#mask-4)"></path>
                    <polygon id="Fill-16" fill="#131313" mask="url(#mask-4)" points="209.611908 50 180 28.9342155 201.558593 0 210.332882 6.24127317 195.16157 26.6033575 216 41.4270754"></polygon>
                    <polygon id="Fill-17" fill="#131313" mask="url(#mask-4)" points="142 68 208 68 208 58 142 58"></polygon>
                    <polygon id="Fill-18" fill="#131313" mask="url(#mask-4)" points="170 121 180 121 180 64 170 64"></polygon>
                    <polygon id="Fill-19" fill="#131313" mask="url(#mask-4)" points="173 51 142 51 148.896963 11 159.541152 12.7351025 154.752357 40.5061631 173 40.5061631"></polygon>
                    <path d="M175.888886,244 L165.422979,242.954929 C165.448157,242.692865 167.83843,218.134491 168.407281,208.438112 C166.437154,208.151355 162.758115,208.300309 160.381216,208.396691 C153.327627,208.681059 146.034065,208.975782 141.631964,204.87117 C140.225967,203.560848 136.875807,199.289757 136.12206,187.955675 C135.797902,183.09036 135.84747,173.568424 139.812115,164.454321 C142.606013,158.032551 146.771289,153.08997 152.192286,149.763585 C158.394567,145.959272 166.05556,144.420341 174.965192,145.194586 L174.066676,155.802216 C167.891932,155.266936 162.673928,156.121632 158.557433,158.343204 C155.124659,160.195179 152.362233,163.059565 150.346472,166.855914 C144.065512,178.683059 147.001819,194.477014 148.812228,197.076947 C149.019941,197.204395 149.848433,197.614617 152.148226,197.797823 C154.43543,197.981029 157.244277,197.867919 159.96107,197.757199 C166.928899,197.476017 172.94471,197.23307 176.590704,200.943391 C178.274439,202.656766 179.103718,204.909404 178.989633,207.456765 C178.602531,216.115242 175.999823,242.865716 175.888886,244" id="Fill-20" fill="#131313" mask="url(#mask-4)"></path>
                    <polygon id="Fill-21" fill="#131313" mask="url(#mask-4)" points="171.460846 179 162.037555 173.84017 174.380013 151.614684 152 139.357089 157.196697 130 189 147.417425"></polygon>
                    <path d="M212.371788,244 C212.259069,242.868914 209.594888,216.193876 209.198763,207.559815 C209.082019,205.018844 209.931433,202.772558 211.654415,201.064809 C215.384591,197.364951 221.54224,197.606419 228.670878,197.887602 C231.450998,197.997215 234.325319,198.110006 236.666643,197.928111 C238.689134,197.770045 239.599738,197.44597 239.953996,197.274401 C240.71243,195.643699 241.712404,189.942201 240.98215,182.234296 C239.842888,170.205389 235.7343,163.327529 233.386535,160.298857 C227.599247,152.831625 219.323296,150.814893 208.086071,154.13428 L205,143.963245 C222.426275,138.816964 236.573247,143.867135 244.834706,158.184425 C250.493173,167.990081 251.721804,179.200857 251.950461,185.010381 C252.131616,189.615743 252.052713,200.77886 247.428036,204.981511 C242.922517,209.074549 235.458945,208.780657 228.241742,208.496297 C225.808634,208.400186 222.044642,208.253241 220.028592,208.538395 C220.609897,218.207431 223.055888,242.696551 223.082457,242.957082 L212.371788,244 Z" id="Fill-22" fill="#131313" mask="url(#mask-4)"></path>
                    <polygon id="Fill-23" fill="#131313" mask="url(#mask-4)" points="209.539578 178 192 146.417141 223.803416 129 229 138.357736 206.620474 150.614332 218.962663 172.839454"></polygon>
                    <polygon id="Fill-24" fill="#131313" mask="url(#mask-4)" points="106.057559 147 96 143.381569 108.055338 109 142 121.209982 138.428433 131.397233 114.54133 122.804874"></polygon>
                    <polygon id="Fill-25" fill="#131313" mask="url(#mask-4)" points="115 247 125 247 125 130 115 130"></polygon>
                    <polygon id="Fill-26" fill="#131313" mask="url(#mask-4)" points="39 191 105 191 105 181 39 181"></polygon>
                    <polygon id="Fill-27" fill="#131313" mask="url(#mask-4)" points="67 245 77 245 77 188 67 188"></polygon>
                    <path d="M56.883443,247 L46.3789054,246.02882 C46.4041586,245.738269 48.8900194,217.877446 49.4029748,207.660795 C48.8671337,207.497058 47.9603864,207.294796 46.4893881,207.147915 C44.2229144,206.922377 41.5160882,206.902311 38.6506404,206.881443 C30.5491016,206.821246 22.8958069,206.764259 18.5948731,202.389937 C11.9509169,195.632612 15.8130765,176.916932 19.8086045,166.707504 C24.0164172,155.956302 29.5871129,150.178183 35.918561,150 L36.2121293,160.723913 C35.8420122,160.747991 33.8051847,161.916618 31.3019623,166.864017 C28.9526265,171.504812 27.003396,177.880086 26.0879679,183.919059 C25.0636354,190.671568 25.7462607,194.018527 26.1353176,194.858878 C26.3973194,195.021009 27.3608864,195.500178 29.9501275,195.805979 C32.5014888,196.106965 35.6660291,196.130241 38.7271891,196.152714 C46.7632274,196.212109 53.7039086,196.262674 57.5873757,200.410656 C59.2643453,202.202122 60.0961222,204.501651 59.9911636,207.059626 C59.603685,216.511373 56.9947149,245.75994 56.883443,247 L56.883443,247 Z" id="Fill-28" fill="#131313" mask="url(#mask-4)"></path>
                    <polygon id="Fill-29" fill="#131313" mask="url(#mask-4)" points="50.588668 177 40.156139 174.250797 46.7785692 149.817063 22 143.287008 24.788094 133 60 142.279258"></polygon>
                    <polygon id="Fill-30" fill="#131313" mask="url(#mask-4)" points="32.5348495 246 28.460396 230.751398 12.706867 234.695258 10 224.564751 36.2186795 218 43 243.37911"></polygon>
                    <polygon id="Fill-31" fill="#131313" mask="url(#mask-4)" points="7 247 26 247 26 237 7 237"></polygon>
                    <polygon id="Fill-32" fill="#131313" mask="url(#mask-4)" points="60 176 70 176 70 166 60 166"></polygon>
                    <polygon id="Fill-33" fill="#131313" mask="url(#mask-4)" points="184 176 194 176 194 166 184 166"></polygon>
                    <polygon id="Fill-34" fill="#131313" mask="url(#mask-4)" points="53.244658 54 49 45.1781794 57.755342 41 62 49.8218206"></polygon>
                    <polygon id="Fill-35" fill="#131313" mask="url(#mask-4)" points="70.2444181 54 66 45.1781794 74.7555819 41 79 49.8218206"></polygon>
                </g>
            </g>
        </g>
    </g>
</svg>