<?xml version="1.0" encoding="UTF-8"?>
<svg width="250px" height="189px" viewBox="0 0 250 189" version="1.1" xmlns="http://www.w3.org/2000/svg" xmlns:xlink="http://www.w3.org/1999/xlink">
    <title>Group 18</title>
    <g id="Homepage" stroke="none" stroke-width="1" fill="none" fill-rule="evenodd">
        <g id="homepage" transform="translate(-1102.000000, -2821.000000)" fill="#131313">
            <g id="icons---gifs---active-" transform="translate(0.000000, 2466.000000)">
                <g id="Group-11" transform="translate(568.000000, 326.000000)">
                    <g id="Group-18" transform="translate(534.000000, 29.000000)">
                        <polygon id="Fill-1" points="21 77 32 77 32 14 21 14"></polygon>
                        <polygon id="Fill-2" points="25.1551737 0 0 27.6096282 8.25020562 35 25.9520511 15.57089 45.5466719 33.1239709 53 24.9426943"></polygon>
                        <polygon id="Fill-3" points="180 180 191 180 191 117 180 117"></polygon>
                        <polygon id="Fill-4" points="166.250206 125 158 117.609628 183.155174 90 211 114.943453 203.547437 123.123213 183.952051 105.57089"></polygon>
                        <polygon id="Fill-5" points="109 164 120 164 120 106 109 106"></polygon>
                        <polygon id="Fill-6" points="132.101127 120 117.346809 98.4260647 96.2115193 113.487128 90 104.403246 120.033416 83 141 113.659342"></polygon>
                        <polygon id="Fill-7" points="219 189 230 189 230 126 219 126"></polygon>
                        <polygon id="Fill-8" points="198 130.552521 206.99772 137 222.220365 115.499483 243.591945 130.813202 250 121.761198 219.631459 100"></polygon>
                        <polygon id="Fill-9" points="147 189 158 189 158 126 147 126"></polygon>
                        <polygon id="Fill-10" points="136.250087 146 128 138.609468 153.155575 111 181 135.943235 173.546779 144.12393 153.951677 126.571227"></polygon>
                        <polygon id="Fill-11" points="85 187 96 187 96 124 85 124"></polygon>
                        <polygon id="Fill-12" points="108.749794 144 91.0479489 124.570469 71.4525634 142.123172 64 133.943235 91.8440616 109 117 136.609468"></polygon>
                        <polygon id="Fill-13" points="89.6201381 84 80 78.5143343 101.379862 41 111 46.4849038"></polygon>
                        <polygon id="Fill-14" points="111.656131 79 74 57.8194586 79.3431099 48 117 69.1789974"></polygon>
                        <polygon id="Fill-15" points="36.2720045 79 31 69.395697 68.7279955 49 74 58.6050553"></polygon>
                        <polygon id="Fill-16" points="58.2783742 85 37 47.4128374 46.7216258 42 68 79.5871626"></polygon>
                        <polygon id="Fill-17" points="0 94 94 94 94 83 0 83"></polygon>
                    </g>
                </g>
            </g>
        </g>
    </g>
</svg>