<?xml version="1.0" encoding="UTF-8"?>
<svg width="251px" height="234px" viewBox="0 0 251 234" version="1.1" xmlns="http://www.w3.org/2000/svg" xmlns:xlink="http://www.w3.org/1999/xlink">
    <title>Group 21</title>
    <g id="Homepage" stroke="none" stroke-width="1" fill="none" fill-rule="evenodd">
        <g id="homepage" transform="translate(-568.000000, -3329.000000)" fill="#131313">
            <g id="icons---gifs---active-" transform="translate(0.000000, 2466.000000)">
                <g id="Group-11" transform="translate(568.000000, 326.000000)">
                    <g id="Group-21" transform="translate(0.000000, 537.000000)">
                        <polygon id="Fill-1" points="174.488788 112.532663 146.66252 108.154332 145 118.695357 175.613304 123.511888 204.594958 112.615606 227.738681 124 251 118.62269 248.590742 108.226999 229.041062 112.745524 205.163096 101"></polygon>
                        <polygon id="Fill-2" points="160.685165 138 136 112.500367 160.685165 87 168 94.5559639 150.628246 112.500367 168 130.444771"></polygon>
                        <polygon id="Fill-3" points="43.0681915 112.2785 17.9715631 100.933706 0 107.977659 3.95812378 117.802542 17.6707221 112.42831 43.2702268 124 71.2617125 110.196439 103.432529 118.022166 106 107.758036 69.9964106 99"></polygon>
                        <polygon id="Fill-4" points="88.3141231 138 81 130.444771 98.3717538 112.500367 81 94.5559639 88.3141231 87 113 112.500367"></polygon>
                        <polygon id="Fill-5" points="100.309462 0 94 40.4293739 104.690538 42 111 1.5691832"></polygon>
                        <polygon id="Fill-6" points="122.560867 29 82 23.3940816 83.4391331 13 124 18.6059184"></polygon>
                        <polygon id="Fill-7" points="108 228.95824 117.581643 234 138 198.04176 128.419108 193"></polygon>
                        <polygon id="Fill-8" points="138.972699 228 102 208.456362 107.027301 199 144 218.542902"></polygon>
                        <polygon id="Fill-9" points="148.972384 67 141 59.8880116 168.027616 28 176 35.1127339"></polygon>
                        <polygon id="Fill-10" points="171.036455 65 139 38.1327649 145.962804 30 178 56.8665019"></polygon>
                        <polygon id="Fill-11" points="66.9723837 199 59 191.888012 86.0276163 160 94 167.112734"></polygon>
                        <polygon id="Fill-12" points="89.0365875 197 57 170.133328 63.9634125 162 96 188.866672"></polygon>
                        <polygon id="Fill-13" points="166.972945 181 159 173.887266 186.027782 142 194 149.111988"></polygon>
                        <polygon id="Fill-14" points="189.036455 179 157 152.132765 163.962804 144 196 170.867235"></polygon>
                        <polygon id="Fill-15" points="111.350969 103 99 78.9029444 108.649776 74 121 98.0985393"></polygon>
                        <polygon id="Fill-16" points="139.178851 99 129 97.0401235 133.820436 71 144 72.9598765"></polygon>
                        <polygon id="Fill-17" points="133.489004 143 122 118.670922 131.510996 114 143 138.329078"></polygon>
                        <polygon id="Fill-18" points="110.780366 159 101 156.81103 106.220322 131 116 133.18897"></polygon>
                        <polygon id="Fill-19" points="128.523993 178 125 151.420737 135.476007 150 139 176.579263"></polygon>
                        <polygon id="Fill-20" points="117.923026 73 112 47.3923549 122.076263 45 128 70.6083664"></polygon>
                    </g>
                </g>
            </g>
        </g>
    </g>
</svg>