<?xml version="1.0" encoding="UTF-8"?>
<svg width="250px" height="242px" viewBox="0 0 250 242" version="1.1" xmlns="http://www.w3.org/2000/svg" xmlns:xlink="http://www.w3.org/1999/xlink">
    <title>Group 59</title>
    <g id="Homepage" stroke="none" stroke-width="1" fill="none" fill-rule="evenodd">
        <g id="homepage" transform="translate(-1102.000000, -3325.000000)" fill="#131313">
            <g id="icons---gifs---active-" transform="translate(0.000000, 2466.000000)">
                <g id="Group-11" transform="translate(568.000000, 326.000000)">
                    <g id="Group-59" transform="translate(534.000000, 533.000000)">
                        <polygon id="Fill-1" points="56.8673772 38 43.109007 18.8245543 23.7927234 32.4818702 18 24.4085436 45.4496519 5 65 32.2495123"></polygon>
                        <polygon id="Fill-2" points="69.6881005 60 62 53.7987003 83.052476 28 109 48.9311319 102.762749 56.5741842 84.5025868 41.8450869"></polygon>
                        <polygon id="Fill-3" points="57 140 67 140 67 84 57 84"></polygon>
                        <polygon id="Fill-4" points="77.8667608 94 64.1086088 74.8241243 44.7926315 88.4824864 39 80.4082388 66.4492165 61 86 88.2493833"></polygon>
                        <polygon id="Fill-5" points="127 172 137 172 137 116 127 116"></polygon>
                        <polygon id="Fill-6" points="116.316378 134 109 127.242722 131.307592 102 156 124.805437 149.390234 132.284344 132.014204 116.236185"></polygon>
                        <polygon id="Fill-7" points="114 124 124 124 124 68 114 68"></polygon>
                        <polygon id="Fill-8" points="103.316378 87 96 80.2434746 118.307592 55 143 77.8054367 136.390234 85.2850962 119.014204 69.2361849"></polygon>
                        <polygon id="Fill-9" points="86.0517369 0 65 25.7987003 72.6873614 32 87.5025868 13.8450869 105.762749 28.5741842 112 20.9311319"></polygon>
                        <polygon id="Fill-10" points="97 161 107 161 107 105 97 105"></polygon>
                        <polygon id="Fill-11" points="86.3157565 124 79 117.243475 101.307206 92 126 114.805437 119.390867 122.285096 102.014565 106.236185"></polygon>
                        <polygon id="Fill-12" points="29 156 39 156 39 100 29 100"></polygon>
                        <polygon id="Fill-13" points="17.3157565 117 10 110.243475 32.3072056 85 57 107.805437 50.3908665 115.284344 33.0145647 99.2361849"></polygon>
                        <polygon id="Fill-14" points="149 117 159 117 159 61 149 61"></polygon>
                        <polygon id="Fill-15" points="138.315757 79 131 72.2427221 153.307942 47 178 69.8054367 171.390867 77.2843437 154.013829 61.2361849"></polygon>
                        <polygon id="Fill-16" points="169 145 179 145 179 89 169 89"></polygon>
                        <polygon id="Fill-17" points="159.315757 107 152 100.243475 174.307942 75 199 97.8054367 192.390867 105.284344 175.014565 89.2361849"></polygon>
                        <polygon id="Fill-18" points="225.867377 108 212.109007 88.8245543 192.792723 102.48187 187 94.4085436 214.449652 75 234 102.249512"></polygon>
                        <polygon id="Fill-19" points="190 176 200 176 200 120 190 120"></polygon>
                        <polygon id="Fill-20" points="178.316378 139 171 132.243475 193.307592 107 218 129.805437 211.390234 137.285096 194.014204 121.236185"></polygon>
                        <polygon id="Fill-21" points="71 192 81 192 81 136 71 136"></polygon>
                        <polygon id="Fill-22" points="59.3157565 154 52 147.243475 74.3072056 122 99 144.805437 92.3901305 152.285096 75.0138286 136.236185"></polygon>
                        <polygon id="Fill-23" points="71 192 81 192 81 136 71 136"></polygon>
                        <polygon id="Fill-24" points="59.3157565 154 52 147.243475 74.3072056 122 99 144.805437 92.3901305 152.285096 75.0138286 136.236185"></polygon>
                        <polygon id="Fill-25" points="220 178 230 178 230 127 220 127"></polygon>
                        <polygon id="Fill-26" points="203 139.243475 210.315757 146 226.014565 128.236185 243.390867 144.285849 250 136.806189 225.308678 114"></polygon>
                        <polygon id="Fill-27" points="154 191 164 191 164 135 154 135"></polygon>
                        <polygon id="Fill-28" points="143.315757 153 136 146.243475 158.307942 121 183 143.805437 176.39013 151.285096 159.013829 135.236185"></polygon>
                        <polygon id="Fill-29" points="18 224 28 224 28 168 18 168"></polygon>
                        <polygon id="Fill-30" points="0 179.243475 7.31649257 186 23.0145647 168.236185 40.3908665 184.285849 47 176.806189 22.3079417 154"></polygon>
                        <polygon id="Fill-31" points="174 234 184 234 184 178 174 178"></polygon>
                        <polygon id="Fill-32" points="162.316378 184 155 177.243475 177.308328 152 202 174.805437 195.390234 182.284344 178.014204 166.236185"></polygon>
                        <polygon id="Fill-33" points="51 230 61 230 61 174 51 174"></polygon>
                        <polygon id="Fill-34" points="71.8673772 185 58.109007 165.824554 38.7919779 179.48261 33 171.408544 60.4489064 152 80 179.249512"></polygon>
                        <polygon id="Fill-35" points="206 65 216 65 216 19 206 19"></polygon>
                        <polygon id="Fill-36" points="110.688101 66 103 59.7987003 124.052476 34 150 54.930397 143.762749 62.5741842 125.502587 47.8450869"></polygon>
                        <polygon id="Fill-37" points="180.997967 42 164.554767 25.1277246 147.923375 41.8098205 141 34.7060578 164.633425 11 188 34.9767839"></polygon>
                        <polygon id="Fill-38" points="226.997967 39 210.554767 22.1269788 193.923375 38.8098205 187 31.705312 210.633425 8 234 31.9760381"></polygon>
                        <polygon id="Fill-39" points="145.997857 40 129.5544 23.1269788 112.922748 39.8098205 106 32.705312 129.633059 9 153 32.9760381"></polygon>
                        <polygon id="Fill-40" points="107 217 117 217 117 164 107 164"></polygon>
                        <polygon id="Fill-41" points="128.799565 177 115.202358 157.757807 95.7252971 171.19105 90 163.088763 117.678242 144 137 171.34448"></polygon>
                        <polygon id="Fill-42" points="210 242 220 242 220 186 210 186"></polygon>
                        <polygon id="Fill-43" points="199.133239 195 191 189.249512 210.550783 162 238 181.408544 232.207369 189.48261 212.891391 175.824554"></polygon>
                        <polygon id="Fill-44" points="145 242 155 242 155 186 145 186"></polygon>
                        <polygon id="Fill-45" points="134.315757 204 127 197.242722 149.307206 172 174 194.805437 167.390867 202.284344 150.014565 186.236185"></polygon>
                        <polygon id="Fill-46" points="73.6881005 83 66 76.7987003 87.052476 51 113 71.9311319 106.762749 79.5741842 88.5025868 64.8450869"></polygon>
                        <polygon id="Fill-47" points="52.8782545 65 39.0940919 45.83496 19.8032696 59.5285051 14 51.4589756 41.413313 32 61 59.2345696"></polygon>
                        <polygon id="Fill-48" points="89 239 99 239 99 183 89 183"></polygon>
                        <polygon id="Fill-49" points="109.684243 201 93.9854353 183.236185 76.6091335 199.284344 70 191.805437 94.6927944 169 117 194.243475"></polygon>
                        <polygon id="Fill-50" points="193.997967 66 177.554031 49.1269788 160.923375 65.8098205 154 58.705312 177.633425 35 201 58.9760381"></polygon>
                        <polygon id="Fill-51" points="66.6881005 118 59 111.7987 80.052476 86 106 106.931132 99.7627494 114.574919 81.5025868 99.8450869"></polygon>
                        <polygon id="Fill-52" points="124.688101 111 117 104.7987 138.052476 79 164 99.9311319 157.762749 107.574184 139.502587 92.8450869"></polygon>
                        <polygon id="Fill-53" points="224.997857 81 208.553665 64.1277246 191.922748 80.8098205 185 73.7060578 208.633059 50 232 73.9760381"></polygon>
                        <polygon id="Fill-54" points="12.6881005 91 5 84.7987003 26.052476 59 52 79.9311319 45.7627494 87.5741842 27.5025868 72.8450869"></polygon>
                        <polygon id="Fill-55" points="33 76 43 76 43 45 33 45"></polygon>
                        <polygon id="Fill-56" points="81 39 91 39 91 14 81 14"></polygon>
                        <polygon id="Fill-57" points="84 98 94 98 94 64 84 64"></polygon>
                        <polygon id="Fill-58" points="159 56 169 56 169 23 159 23"></polygon>
                    </g>
                </g>
            </g>
        </g>
    </g>
</svg>