<?xml version="1.0" encoding="UTF-8"?>
<svg width="250px" height="249px" viewBox="0 0 250 249" version="1.1" xmlns="http://www.w3.org/2000/svg" xmlns:xlink="http://www.w3.org/1999/xlink">
    <title>Group 23</title>
    <g id="Homepage" stroke="none" stroke-width="1" fill="none" fill-rule="evenodd">
        <g id="homepage" transform="translate(-568.000000, -3854.000000)" fill="#131313">
            <g id="icons---gifs---active-" transform="translate(0.000000, 2466.000000)">
                <g id="Group-11" transform="translate(568.000000, 326.000000)">
                    <g id="Group-23" transform="translate(0.000000, 1062.000000)">
                        <polygon id="Fill-1" points="46.9996253 0 21 26.2279883 28.7033707 34 46.9996253 15.5425116 65.29588 34 73 26.2279883"></polygon>
                        <polygon id="Fill-2" points="47.9795445 45 41 11.2053094 52.0204555 9 59 42.7946906"></polygon>
                        <polygon id="Fill-3" points="65.2965183 88 47 69.5425116 28.7034817 88 21 80.2287442 47 54 73 80.2287442"></polygon>
                        <polygon id="Fill-4" points="42.7735007 96 41 65.5990695 52.2272727 65 54 95.4009305"></polygon>
                        <polygon id="Fill-5" points="65.2965183 143 47 124.542922 28.7034817 143 21 135.228917 47 109 73 135.228917"></polygon>
                        <polygon id="Fill-6" points="50.4061792 151 40 150.042526 42.5938208 119 53 119.95672"></polygon>
                        <polygon id="Fill-7" points="65.2965183 197 47 178.542922 28.7034817 197 21 189.228917 47 163 73 189.228917"></polygon>
                        <polygon id="Fill-8" points="42 204 53 204 53 173 42 173"></polygon>
                        <polygon id="Fill-9" points="125 248 99 221.771839 106.703482 214 125 232.457078 143.296518 214 151 221.771839"></polygon>
                        <polygon id="Fill-10" points="119.940029 238 116 206.289329 127.059971 205 131 236.710671"></polygon>
                        <polygon id="Fill-11" points="125 191 99 164.772012 106.703482 157 125 175.457488 143.296518 157 151 164.772012"></polygon>
                        <polygon id="Fill-12" points="130.537592 180 120 179.112674 122.462408 148 133 148.888076"></polygon>
                        <polygon id="Fill-13" points="125 134 99 107.771839 106.703482 100 125 118.457078 143.296518 100 151 107.771839"></polygon>
                        <polygon id="Fill-14" points="120 123 131 123 131 92 120 92"></polygon>
                        <polygon id="Fill-15" points="125 77 99 50.7712558 106.703482 43 125 61.4574884 143.296518 43 151 50.7712558"></polygon>
                        <polygon id="Fill-16" points="120.146212 67 118 35.7425357 128.853788 35 131 66.2567173"></polygon>
                        <polygon id="Fill-17" points="80 249 91 249 91 0 80 0"></polygon>
                        <polygon id="Fill-18" points="159 249 170 249 170 0 159 0"></polygon>
                        <polygon id="Fill-19" points="239 249 250 249 250 0 239 0"></polygon>
                        <polygon id="Fill-20" points="0 249 11 249 11 0 0 0"></polygon>
                        <polygon id="Fill-21" points="182 16 228 16 228 5 182 5"></polygon>
                        <polygon id="Fill-22" points="182 246 228 246 228 235 182 235"></polygon>
                    </g>
                </g>
            </g>
        </g>
    </g>
</svg>