<?xml version="1.0" encoding="UTF-8"?>
<svg width="251px" height="250px" viewBox="0 0 251 250" version="1.1" xmlns="http://www.w3.org/2000/svg" xmlns:xlink="http://www.w3.org/1999/xlink">
    <title>Group 34</title>
    <g id="Homepage" stroke="none" stroke-width="1" fill="none" fill-rule="evenodd">
        <g id="homepage" transform="translate(-1101.000000, -3853.000000)" fill="#131313">
            <g id="icons---gifs---active-" transform="translate(0.000000, 2466.000000)">
                <g id="Group-11" transform="translate(568.000000, 326.000000)">
                    <g id="Group-34" transform="translate(533.000000, 1061.000000)">
                        <polygon id="Fill-1" points="73.3022004 63 47 13.6381824 55.6977996 9 82 58.3624958"></polygon>
                        <polygon id="Fill-2" points="83.0004033 72 51 63.8539381 53.3703007 54.1991433 75.8888291 59.9315066 81.5187974 37 91 39.4136987"></polygon>
                        <polygon id="Fill-3" points="28.2345094 66 4 61.6170989 5.76481317 52 30 56.3822286"></polygon>
                        <polygon id="Fill-4" points="28.9412393 87 23 79.1301245 41.3383662 64.7475549 27.2270852 46.0564299 34.9481499 40 55 66.5610004"></polygon>
                        <polygon id="Fill-5" points="159.839901 40 150 38.1966536 155.160099 10 165 11.8033464"></polygon>
                        <polygon id="Fill-6" points="150.417467 67 130 40.9325504 137.876255 35 152.244103 53.3442819 170.95038 39.2544747 177 46.9776424"></polygon>
                        <polygon id="Fill-7" points="195 147.899507 249.779596 155 251 145.101179 196.221073 138"></polygon>
                        <polygon id="Fill-8" points="203.933378 166 182 140.732329 207.501425 119 214 126.486365 196.054198 141.779687 211.489 159.560993"></polygon>
                        <polygon id="Fill-9" points="205.420095 95 204 85.5606843 242.579905 80 244 89.4386594"></polygon>
                        <polygon id="Fill-10" points="208.552094 115 181 96.1878444 199.387865 68 207.550948 73.5743046 194.61099 93.410016 214 106.648558"></polygon>
                        <polygon id="Fill-11" points="115.420789 0 105 0.122359304 105.579211 44 116 43.8769647"></polygon>
                        <polygon id="Fill-12" points="111.985271 57 87 34.6424571 93.5220279 27.1235461 111.105035 42.8568105 126.597057 25 134 31.6249677"></polygon>
                        <polygon id="Fill-13" points="16.7388063 163 10 155.812705 27.0730433 139.808337 11.0674464 122.738004 18.2562746 116 41 140.258305"></polygon>
                        <polygon id="Fill-14" points="73.8777046 222 60.0947275 202.833847 40.8028167 216.527172 35 208.456746 62.4148928 189 82 216.235215"></polygon>
                        <polygon id="Fill-15" points="192.775349 73 186 65.6542019 223.225337 31 230 38.3457981"></polygon>
                        <polygon id="Fill-16" points="181.42293 78 181 44.1270331 190.947748 44 191.246125 67.8366601 214.874763 67.5363372 215 77.572644"></polygon>
                        <polygon id="Fill-17" points="44.1996163 109 3 97.3922234 5.80038373 88 47 99.6077766"></polygon>
                        <polygon id="Fill-18" points="29.2662576 126 24 117.397042 44.220143 104.756685 31.7127813 84.3219626 40.2263807 79 58 108.038376"></polygon>
                        <polygon id="Fill-19" points="176.453123 243 164 189.181323 173.546877 187 186 240.818677"></polygon>
                        <polygon id="Fill-20" points="154.750288 197 146 192.178652 162.468983 163 192 179.272474 187.121118 187.917673 166.3397 176.466547"></polygon>
                        <polygon id="Fill-21" points="0 194.402337 5.18688575 203 54 173.597663 48.8131143 165"></polygon>
                        <polygon id="Fill-22" points="47.5422244 198 38.3540354 194.05435 47.8240157 172.461662 26 163.091084 29.9877953 154 61 167.314866"></polygon>
                        <polygon id="Fill-23" points="199.792362 203 190 201.803176 193.949507 168 227 172.039369 225.830479 182.055227 202.57167 179.212683"></polygon>
                        <polygon id="Fill-24" points="132 194.505159 140.392556 250 150 248.49416 141.607444 193"></polygon>
                        <polygon id="Fill-25" points="124.399847 214 116 208.616328 134.651727 181 163 199.170144 157.474331 207.352436 137.525213 194.565963"></polygon>
                        <polygon id="Fill-26" points="91 245 101 245 101 190 91 190"></polygon>
                        <polygon id="Fill-27" points="111.68378 207 95.9859169 189.79136 78.6095551 205.337703 72 198.092772 96.6925819 176 119 200.454242"></polygon>
                        <polygon id="Fill-28" points="128.942166 153 120 148.326479 139.057133 115 148 119.672851"></polygon>
                        <polygon id="Fill-29" points="149.331792 147 115 128.804422 119.668208 120 154 138.195578"></polygon>
                        <polygon id="Fill-30" points="87.2890365 132 80 125.435088 104.710963 96 112 102.565601"></polygon>
                        <polygon id="Fill-31" points="107.572796 130 78 105.435671 84.4278875 98 114 122.563659"></polygon>
                        <polygon id="Fill-32" points="123.289037 118 116 111.434399 140.710963 82 148 88.5649123"></polygon>
                        <polygon id="Fill-33" points="143.572112 115 114 90.4356707 120.427204 83 150 107.563659"></polygon>
                    </g>
                </g>
            </g>
        </g>
    </g>
</svg>