<?xml version="1.0" encoding="UTF-8"?>
<svg width="40px" height="40px" viewBox="0 0 40 40" version="1.1" xmlns="http://www.w3.org/2000/svg" xmlns:xlink="http://www.w3.org/1999/xlink">
    <title>Group 3</title>
    <defs>
        <polygon id="path-1" points="0 0 40 0 40 40 0 40"></polygon>
    </defs>
    <g id="Homepage" stroke="none" stroke-width="1" fill="none" fill-rule="evenodd">
        <g id="homepage---final" transform="translate(-1468.000000, -58.000000)">
            <g id="soc-hubs" transform="translate(301.000000, 41.000000)">
                <g transform="translate(1167.000000, 17.000000)" id="Group-3">
                    <mask id="mask-2" fill="white">
                        <use xlink:href="#path-1"></use>
                    </mask>
                    <g id="Clip-2"></g>
                    <path d="M9.15164241,19.5666444 L28.4350056,12.131643 C29.3300057,11.8082836 30.1116465,12.3500024 29.8216464,13.7033621 L29.8233652,13.7016433 L26.5400052,29.1700057 C26.2966458,30.2666465 25.645005,30.5333653 24.7333642,30.0166465 L19.7333632,26.3316458 L17.321644,28.6550056 C17.0550033,28.9216463 16.8300033,29.1466463 16.3132844,29.1466463 L16.6682845,24.0583641 L25.9350051,15.6866437 C26.3383645,15.3316436 25.845005,15.1316436 25.3133643,15.485003 L13.8616433,22.6950044 L8.92500174,21.1550041 C7.85336091,20.8150041 7.83000153,20.0832852 9.15164241,19.5666444 Z M20,40 C31.0482873,40 40,31.0483654 40,20 C40,8.95164237 31.0482873,0 20,0 C8.95164237,0 0,8.95164237 0,20 C0,31.0483654 8.95164237,40 20,40 L20,40 Z" id="Fill-1" fill="#FFFFFF" mask="url(#mask-2)"></path>
                </g>
            </g>
        </g>
    </g>
</svg>