<?xml version="1.0" encoding="UTF-8"?>
<svg width="250px" height="26px" viewBox="0 0 250 26" version="1.1" xmlns="http://www.w3.org/2000/svg" xmlns:xlink="http://www.w3.org/1999/xlink">
    <title>logo title</title>
    <g id="Homepage" stroke="none" stroke-width="1" fill="none" fill-rule="evenodd">
        <g id="project-page" transform="translate(-391.000000, -65.000000)" fill="#FFFFFF">
            <g id="logo" transform="translate(301.000000, 41.000000)">
                <g id="logo-title" transform="translate(90.054199, 24.100922)">
                    <polygon id="Fill-226" points="17.7898776 25.4052762 17.7617042 14.9902844 12.6868571 23.4681469 10.206041 23.4681469 5.13119379 15.2152179 5.13119379 25.4052762 0 25.4052762 0 5.75502453 4.59537925 5.75502453 11.5307081 17.0957241 18.2975188 5.75502453 22.892898 5.75502453 22.9492446 25.4052762"></polygon>
                    <polygon id="Fill-227" points="27.1498846 25.4052243 32.6473313 25.4052243 32.6473313 5.75497259 27.1498846 5.75497259"></polygon>
                    <path d="M40.9221965,24.4926073 C39.2771885,23.6224835 37.9853902,22.4110635 37.0457583,20.8573081 C36.1056047,19.3040723 35.6360496,17.5451236 35.6360496,15.5799426 C35.6360496,13.615281 36.1056047,11.8563324 37.0457583,10.302577 C37.9853902,8.7488217 39.2771885,7.53740163 40.9221965,6.66727787 C42.5666828,5.79715411 44.4224689,5.36183249 46.4905983,5.36183249 C48.2947333,5.36183249 49.9204374,5.68027181 51.3677106,6.31611151 C52.8149837,6.95247067 54.0180883,7.86986683 54.9765024,9.06726102 L51.4240572,12.267758 C50.1458239,10.7332234 48.5952486,9.96543654 46.7723313,9.96543654 C45.701224,9.96543654 44.7469837,10.1997206 43.9111756,10.6672498 C43.0743241,11.1352985 42.4258163,11.7950341 41.9656523,12.6464567 C41.5044448,13.4978793 41.2748846,14.4760542 41.2748846,15.5799426 C41.2748846,16.6843504 41.5044448,17.6625254 41.9656523,18.5134285 C42.4258163,19.3653705 43.0743241,20.0245867 43.9111756,20.4926354 C44.7469837,20.9601645 45.701224,21.1939291 46.7723313,21.1939291 C48.5952486,21.1939291 50.1458239,20.4271813 51.4240572,18.8926466 L54.9765024,22.0926241 C54.0180883,23.2905378 52.8149837,24.2074145 51.3677106,24.8437736 C49.9204374,25.4796133 48.2947333,25.7980527 46.4905983,25.7980527 C44.4224689,25.7980527 42.5666828,25.362731 40.9221965,24.4926073" id="Fill-228"></path>
                    <path d="M68.6924677,20.6609459 C69.2465427,20.1554949 69.524102,19.444331 69.524102,18.5274544 C69.524102,16.8246092 68.4994284,15.9731866 66.4511247,15.9731866 L62.9831994,15.9731866 L62.9831994,21.4188626 L66.4511247,21.4188626 C67.3907566,21.4188626 68.137871,21.1663969 68.6924677,20.6609459 M73.1610671,13.6287874 C74.4763431,14.7051435 75.1347637,16.300457 75.1347637,18.4152473 C75.1347637,20.679647 74.4012143,22.4110635 72.9356806,23.6084576 C71.4696253,24.8063713 69.4296692,25.4053281 66.8173777,25.4053281 L57.4857527,25.4053281 L57.4857527,5.75507648 L62.9831994,5.75507648 L62.9831994,12.0147728 L67.5504054,12.0147728 C69.9748749,12.0147728 71.8452694,12.5534703 73.1610671,13.6287874" id="Fill-229"></path>
                    <polygon id="Fill-230" points="85.9326528 17.8814849 83.3954901 17.8814849 83.3954901 25.4050684 77.8411749 25.4050684 77.8411749 5.75481674 83.3954901 5.75481674 83.3954901 13.3900878 86.0735193 13.3900878 90.7815918 5.75481674 96.646335 5.75481674 90.4716854 15.2430618 96.7026816 25.4050684 90.4153388 25.4050684"></polygon>
                    <polygon id="Fill-231" points="98.5068688 5.75492064 104.004837 5.75492064 104.004837 17.292502 112.152662 5.75492064 117.396549 5.75492064 117.396549 25.4051723 111.89858 25.4051723 111.89858 13.8956427 103.778929 25.4051723 98.5068688 25.4051723"></polygon>
                    <path d="M126.658262,3.42491102 C125.7275,2.6571242 125.262118,1.51583351 125.262118,0 L129.012298,0 C129.030559,0.655060337 129.199599,1.14129069 129.519418,1.45973001 C129.839237,1.77816934 130.346357,1.93712926 131.04182,1.93712926 C131.736762,1.93712926 132.254316,1.77816934 132.592917,1.45973001 C132.930997,1.14129069 133.109428,0.655060337 133.12821,0 L136.87839,0 C136.87839,1.51583351 136.407791,2.6571242 135.468681,3.42491102 C134.528527,4.19269784 133.053081,4.5755523 131.04182,4.5755523 C129.049341,4.5755523 127.588503,4.19269784 126.658262,3.42491102 L126.658262,3.42491102 Z M121.625675,5.7547648 L127.123122,5.7547648 L127.123122,17.2923461 L135.271468,5.7547648 L140.515355,5.7547648 L140.515355,25.4055359 L135.016865,25.4055359 L135.016865,13.8954869 L126.897735,25.4055359 L121.625675,25.4055359 L121.625675,5.7547648 Z" id="Fill-232"></path>
                    <polygon id="Fill-233" points="168.848936 10.1623702 162.815674 10.1623702 162.815674 25.4053801 157.317706 25.4053801 157.317706 10.1623702 151.25575 10.1623702 151.25575 5.75512843 168.848936 5.75512843"></polygon>
                    <polygon id="Fill-234" points="187.2592 21.1099297 187.2592 25.405484 171.414324 25.405484 171.414324 5.75471285 186.892425 5.75471285 186.892425 10.0497476 176.940466 10.0497476 176.940466 13.3624517 185.708103 13.3624517 185.708103 17.5167082 176.940466 17.5167082 176.940466 21.1099297"></polygon>
                    <path d="M202.42703,17.4888123 L199.889345,11.2010642 L197.351661,17.4888123 L202.42703,17.4888123 Z M204.062125,21.5874848 L195.717087,21.5874848 L194.16599,25.4051204 L188.47133,25.4051204 L197.182621,5.75486869 L202.680589,5.75486869 L211.420575,25.4051204 L205.6127,25.4051204 L204.062125,21.5874848 Z" id="Fill-235"></path>
                    <polygon id="Fill-236" points="228.590327 10.1623702 222.557065 10.1623702 222.557065 25.4053801 217.059097 25.4053801 217.059097 10.1623702 210.997662 10.1623702 210.997662 5.75512843 228.590327 5.75512843"></polygon>
                    <path d="M242.433437,15.144569 C243.015686,14.6489881 243.307331,13.943019 243.307331,13.0251034 C243.307331,12.1087462 243.015686,11.3970628 242.433437,10.8916119 C241.850667,10.3866803 240.986164,10.1336951 239.839406,10.1336951 L236.738256,10.1336951 L236.738256,15.8889794 L239.839406,15.8889794 C240.986164,15.8889794 241.850667,15.6406694 242.433437,15.144569 M244.829733,6.63917417 C246.145009,7.22878042 247.160292,8.07085243 247.874537,9.1653902 C248.588783,10.2604475 248.945645,11.5471917 248.945645,13.0251034 C248.945645,14.504054 248.588783,15.7856035 247.874537,16.8713101 C247.160292,17.9564973 246.145009,18.793894 244.829733,19.3835003 C243.513936,19.9731065 241.96336,20.2676499 240.178008,20.2676499 L236.738256,20.2676499 L236.738256,25.4052762 L231.156289,25.4052762 L231.156289,5.75502453 L240.178008,5.75502453 C241.96336,5.75502453 243.513936,6.04956792 244.829733,6.63917417" id="Fill-237"></path>
                </g>
            </g>
        </g>
    </g>
</svg>