<?xml version="1.0" encoding="UTF-8"?>
<svg width="40px" height="40px" viewBox="0 0 40 40" version="1.1" xmlns="http://www.w3.org/2000/svg" xmlns:xlink="http://www.w3.org/1999/xlink">
    <title>Group 7</title>
    <g id="Homepage" stroke="none" stroke-width="1" fill="none" fill-rule="evenodd">
        <g id="homepage---final" transform="translate(-1523.000000, -58.000000)" fill="#c4c4c4">
            <g id="soc-hubs" transform="translate(301.000000, 41.000000)">
                <g transform="translate(1167.000000, 17.000000)">
                    <g id="Group-7" transform="translate(55.000000, 0.000000)">
                        <path d="M20,15.8095238 C22.3143401,15.8095238 24.1904762,17.6856599 24.1904762,20 C24.1904762,22.3143401 22.3143401,24.1904762 20,24.1904762 C17.6856599,24.1904762 15.8095238,22.3143401 15.8095238,20 C15.8095238,17.6856599 17.6856599,15.8095238 20,15.8095238" id="Fill-1"></path>
                        <path d="M32.35664,25.0832 C32.26064,26.98464 31.72632,28.85968 30.34064,30.23064 C28.94152,31.61464 27.0576,32.13032 25.13784,32.22536 L14.86224,32.22536 C12.94224,32.13032 11.05856,31.61488 9.65944,30.23064 C8.27368,28.85968 7.73944,26.98464 7.64344,25.0832 L7.64344,14.9168 C7.73944,13.01536 8.27376,11.14032 9.65944,9.76928 C11.05856,8.38528 12.94248,7.8696 14.86224,7.77464 L25.13776,7.77464 C27.05776,7.8696 28.94144,8.38504 30.34056,9.76928 C31.72632,11.14032 32.26056,13.01536 32.35664,14.9168 L32.35664,25.0832 Z M20,0 C8.95432,0 0,8.95432 0,20 C0,31.04568 8.95432,40 20,40 C31.04568,40 40,31.04568 40,20 C40,8.95432 31.04568,0 20,0 L20,0 Z" id="Fill-3"></path>
                        <path d="M26.5520506,14.7180031 C25.8329806,14.7178425 25.2502364,14.1324065 25.2503164,13.4105106 C25.2504764,12.6886148 25.8336207,12.1035001 26.5526906,12.1036607 C27.2716805,12.1038214 27.8544248,12.6890164 27.8544248,13.4108319 C27.8544248,14.1327277 27.2715205,14.7180031 26.5523706,14.7180031 L26.5520506,14.7180031 Z M20.0140984,26.4406178 C16.4185887,26.4406178 13.5038273,23.514482 13.5038273,19.9047619 C13.5038273,16.2951222 16.4185887,13.3689061 20.0140984,13.3689061 C23.6096881,13.3689061 26.5243694,16.2951222 26.5243694,19.9047619 C26.5243694,23.514482 23.6096881,26.4406178 20.0140984,26.4406178 L20.0140984,26.4406178 Z M25.0223069,9.95644637 C22.5194027,9.88753375 17.5095941,9.88753375 15.0066099,9.95644637 C13.7039956,9.9923484 12.2273742,10.3178762 11.2994155,11.3130129 C10.3349754,12.3474251 9.9705602,13.5971691 9.93359866,14.9952599 C9.86871596,17.4491274 9.93359866,24.8142639 9.93359866,24.8142639 C9.97600043,26.2121941 10.3349754,27.4620987 11.2994155,28.4965109 C12.2273742,29.4919689 13.7039956,29.8171754 15.0066099,29.8530774 C17.5095941,29.9219901 22.5194027,29.9219901 25.0223069,29.8530774 C26.3248411,29.8171754 27.8014626,29.4916476 28.7295812,28.4965109 C29.6938614,27.4620987 30.0582766,26.2123547 30.0952381,24.8142639 L30.0952381,14.9952599 C30.0582766,13.5971691 29.6938614,12.3474251 28.7295812,11.3130129 C27.8011426,10.3175549 26.3245211,9.9923484 25.0223069,9.95644637 L25.0223069,9.95644637 Z" id="Fill-5"></path>
                    </g>
                </g>
            </g>
        </g>
    </g>
</svg>