<?xml version="1.0" encoding="utf-8"?>
<!-- Generator: Adobe Illustrator 26.0.1, SVG Export Plug-In . SVG Version: 6.00 Build 0)  -->
<svg version="1.1" id="Layer_1" xmlns="http://www.w3.org/2000/svg" xmlns:xlink="http://www.w3.org/1999/xlink" x="0px" y="0px"
	 viewBox="0 0 1938.09 620.32" style="enable-background:new 0 0 1938.09 620.32;" xml:space="preserve">
<style type="text/css">
	.st0{fill:#FFFFFF;}
</style>
<path class="st0" d="M738.04,11.08L486.67,610.82h-164L198.97,132.2c-7.51-29.48-14.04-40.28-36.88-52.7
	C124.8,59.27,63.22,40.29,9.04,28.51l3.68-17.43h263.99c33.65,0,63.9,22.4,71.54,61.15l65.33,347.04l161.46-408.2L738.04,11.08
	L738.04,11.08z M1380.62,415.01c0.66-158.29-218.88-167.01-217.37-237.72c0.47-21.52,20.96-44.4,65.81-50.24
	c22.23-2.91,83.48-5.13,152.95,26.84l27.25-127.18c-37.33-13.55-85.36-26.59-145.12-26.59c-153.35,0-261.27,81.52-262.18,198.25
	c-0.99,86.34,77.03,134.52,135.81,163.21c60.47,29.38,80.76,48.26,80.53,74.54c-0.43,40.23-48.23,57.99-92.9,58.69
	c-77.98,1.2-123.23-21.1-159.3-37.87l-28.12,131.39c36.25,16.63,103.16,31.14,172.53,31.87
	C1273.5,620.2,1380.12,539.69,1380.62,415.01 M1785.56,610.82h143.49L1803.8,11.08h-132.44c-29.78,0-54.9,17.34-66.02,44
	l-232.81,555.74h162.91l32.34-89.58h199.05L1785.56,610.82z M1612.45,398.32l81.66-225.18l47,225.18H1612.45z M959.71,11.08
	L831.42,610.82H676.28L804.62,11.08L959.71,11.08L959.71,11.08z"/>
</svg>
