<?xml version="1.0" encoding="UTF-8"?>
<svg width="198px" height="210px" viewBox="0 0 198 210" version="1.1" xmlns="http://www.w3.org/2000/svg" xmlns:xlink="http://www.w3.org/1999/xlink">
    <title>Group 42</title>
    <defs>
        <polygon id="path-1" points="0 0 17.0971065 0 17.0971065 24.7013176 0 24.7013176"></polygon>
        <polygon id="path-3" points="0 0 23.7920222 0 23.7920222 24.6666593 0 24.6666593"></polygon>
    </defs>
    <g id="Homepage" stroke="none" stroke-width="1" fill="none" fill-rule="evenodd">
        <g id="project-page---final" transform="translate(-303.000000, -3091.000000)">
            <g id="Info" transform="translate(301.000000, 1392.000000)">
                <g id="Group-42" transform="translate(2.000000, 1699.000000)">
                    <polygon id="Fill-1" fill="#003999" points="0 132 198 132 198 0 0 0"></polygon>
                    <polygon id="Fill-2" fill="#FFEC00" points="94.7168529 29 98.999233 25.9446243 103.280079 29 101.650888 24.0577457 106 21.0016185 100.63993 21.0016185 98.999233 16 97.357769 21.0068786 92 21.0016185 96.3468113 24.0577457"></polygon>
                    <polygon id="Fill-3" fill="#FFEC00" points="72.7193031 34 77.0011506 30.9454619 81.2799299 34 79.6537176 29.0603154 84 26.0057773 78.6396362 26.0057773 76.9980823 21 75.3572955 26.0110347 70 26.0057773 74.3462824 29.0603154"></polygon>
                    <polygon id="Fill-4" fill="#FFEC00" points="62.0003836 37 60.3592371 42.0105731 55 42.0060666 59.3472352 45.06003 57.7168302 50 62.0003836 46.9452854 66.2831698 50 64.6535321 45.06003 69 42.0060666 63.6415301 42.0060666"></polygon>
                    <polygon id="Fill-5" fill="#FFEC00" points="55.0015341 68.9458601 59.2808459 72 57.6531887 67.0597446 62 64.0056047 56.642231 64.0056047 55.0015341 59 53.3600701 64.0168718 48 64.0056047 52.3491124 67.0597446 50.7199211 72"></polygon>
                    <polygon id="Fill-6" fill="#FFEC00" points="63.6415301 86.0060666 62.0003836 81 60.3600044 86.0105731 55 86.0060666 59.3472352 89.06003 57.7168302 94 62.0003836 90.9392766 66.2831698 94 64.6535321 89.06003 69 86.0060666"></polygon>
                    <polygon id="Fill-7" fill="#FFEC00" points="78.6393425 102.00237 76.9984658 97 75.3614247 102.00763 70 102.00237 74.3457534 105.057746 72.7186849 110 77.0015342 106.943873 81.2805479 110 79.6542466 105.057746 84 102.00237"></polygon>
                    <polygon id="Fill-8" fill="#FFEC00" points="100.63993 107.004564 98.999233 102 97.3616042 107.010573 92 107.004564 96.3468113 110.058528 94.7199211 115 99.000767 111.944534 103.280079 115 101.650888 110.058528 106 107.004564"></polygon>
                    <polygon id="Fill-9" fill="#FFEC00" points="122.638461 102.00237 120.999616 97 119.356168 102.00763 114 102.00237 118.344166 105.057746 116.717597 110 120.999616 106.943873 125.282403 110 123.649696 105.057746 128 102.00237"></polygon>
                    <polygon id="Fill-10" fill="#FFEC00" points="137.644599 86.0060666 136.000384 81 134.356935 86.0105731 129 86.0060666 133.350304 89.06003 131.717597 94 136.000384 90.9392766 140.28317 94 138.65123 89.06003 143 86.0060666"></polygon>
                    <polygon id="Fill-11" fill="#FFEC00" points="150 64.0053155 144.640517 64.0053155 142.996932 59 141.359483 64.0105731 136 64.0053155 140.347869 67.0592789 138.721157 72 142.996932 68.9392766 147.278076 72 145.652131 67.0592789"></polygon>
                    <polygon id="Fill-12" fill="#FFEC00" points="131.717448 50 135.999233 46.9440495 140.283319 50 138.649934 45.0580313 143 42.008092 137.643358 42.008092 135.999233 37 134.355875 42.0133518 129 42.008092 133.349299 45.0580313"></polygon>
                    <polygon id="Fill-13" fill="#FFEC00" points="120.997316 21 119.359956 26.0110347 114 25.9997689 118.342262 29.0595644 116.716406 34 121.003451 30.9394535 125.278992 34 123.652369 29.0595644 128 25.9997689 122.634675 25.9997689"></polygon>
                    <polygon id="Fill-14" fill="#003999" points="0 148 0 173 4.6837327 173 4.6837327 152.260579 15.3162673 152.260579 15.3162673 173 20 173 20 148"></polygon>
                    <g id="Group-41" transform="translate(26.000000, 149.000000)">
                        <path d="M4.73777941,12.1964147 L10.2310628,12.1964147 C11.1009011,12.1964147 11.827261,11.8423628 12.4108897,11.1335121 C12.9945183,10.4269023 13.285959,9.4670781 13.285959,8.25628046 C13.285959,7.63930399 13.1947904,7.08581784 13.0117059,6.59507506 C12.827874,6.10433228 12.5879959,5.6867901 12.290577,5.3439424 C11.993158,5.00184165 11.6434292,4.74414567 11.2436323,4.57309529 C10.8430882,4.40204491 10.4365658,4.31614625 10.0248124,4.31614625 L4.73777941,4.31614625 L4.73777941,12.1964147 Z M0,24.4956089 L0,0.170602209 L10.3334406,0.170602209 C11.4543664,0.170602209 12.490849,0.405889844 13.4406468,0.873477335 C14.3904445,1.34181177 15.2094676,1.95878824 15.8954741,2.72365978 C16.5822279,3.48927828 17.119525,4.35648128 17.5096072,5.32750961 C17.8981947,6.29853795 18.0924885,7.27404795 18.0924885,8.25628046 C18.0924885,9.28482355 17.909404,10.2834888 17.5439822,11.2537702 C17.1770659,12.2247986 16.6621873,13.086773 15.9985993,13.8404403 C15.334264,14.5941077 14.5331757,15.19988 13.5960818,15.6562633 C12.656746,16.1133936 11.6269889,16.3412118 10.5060632,16.3412118 L4.73777941,16.3412118 L4.73777941,24.4956089 L0,24.4956089 Z" id="Fill-15" fill="#003999"></path>
                        <path d="M34.1599127,4.21418828 L29.1815079,4.21418828 C28.7241702,4.21418828 28.289251,4.29933999 27.8774976,4.47113732 C27.4649969,4.64144075 27.0928496,4.881957 26.7618028,5.19044523 C26.4292615,5.49893346 26.1662176,5.87539368 25.9719239,6.32057282 C25.7768828,6.76575197 25.6797359,7.26321725 25.6797359,7.81072784 C25.6797359,8.90724292 26.0062989,9.78639703 26.6579304,10.4489371 C27.3103092,11.1114772 28.1173757,11.4423738 29.0783827,11.4423738 L34.1599127,11.4423738 L34.1599127,4.21418828 Z M34.1599127,24.4952355 L34.1599127,15.4848395 L30.2807624,15.4848395 L24.787479,24.4952355 L19.5691961,24.4952355 L25.5429829,14.9029694 C24.1463095,14.3323035 23.0246365,13.418043 22.1779639,12.1624287 C21.3305441,10.9060674 20.9075814,9.45550045 20.9075814,7.81072784 C20.9075814,6.7829317 21.1018752,5.81339725 21.4912101,4.89913673 C21.8797977,3.98562315 22.417842,3.17444102 23.1053431,2.46633728 C23.792097,1.75898048 24.6096255,1.19877183 25.5594232,0.787952147 C26.5092209,0.376385522 27.544209,0.170975681 28.6666293,0.170975681 L38.863317,0.170975681 L38.863317,24.4952355 L34.1599127,24.4952355 Z" id="Fill-17" fill="#003999"></path>
                        <polygon id="Fill-19" fill="#003999" points="64.0286227 24.4954596 64.0286227 8.39282198 57.7454604 20.384275 55.1703203 20.384275 48.8879053 8.39282198 48.8879053 24.4954596 44.1501258 24.4954596 44.1501258 0.171199765 49.2309085 0.171199765 56.4407028 14.0120883 63.7192472 0.171199765 68.7664021 0.171199765 68.7664021 24.4954596"></polygon>
                        <path d="M78.0008125,24.734706 C77.7489778,24.734706 77.4739774,24.7182732 77.1765584,24.6839137 C76.8791394,24.6495543 76.5697639,24.5980151 76.2491792,24.5300431 C75.9293417,24.4613242 75.6147352,24.3701969 75.306107,24.2551674 C74.9967315,24.1416318 74.7277093,24.0041939 74.4982932,23.8443477 L75.1170442,19.938573 C75.3688788,20.0760108 75.7178604,20.2298815 76.1639888,20.4009318 C76.6108646,20.5727292 77.0741805,20.6578809 77.5539367,20.6578809 C78.218272,20.6578809 78.7951752,20.4696508 79.2883825,20.0924436 C79.7800952,19.7159834 80.2090361,19.0370105 80.5752052,18.054778 L71.6152722,0.170676903 L76.73043,0.170676903 L82.7042168,13.2922575 L88.265503,0.170676903 L93.2439078,0.170676903 L84.6613531,18.6710075 C84.1569366,19.7675226 83.6652238,20.6982159 83.1847203,21.4630875 C82.7042168,22.2294529 82.2065258,22.8561396 81.6909,23.3476294 C81.1767687,23.8391191 80.6215368,24.192424 80.0259516,24.409038 C79.4311137,24.625652 78.7563164,24.734706 78.0008125,24.734706" id="Fill-21" fill="#003999"></path>
                        <path d="M116.55453,19.0480653 C116.165195,19.9623258 115.62192,20.7667854 114.924704,21.4629381 C114.225993,22.1605846 113.418927,22.7476832 112.503504,23.2279688 C111.588082,23.7067605 110.603909,24.0735104 109.550986,24.32299 C108.49881,24.5747104 107.422722,24.7009441 106.324214,24.7009441 C104.515787,24.7009441 102.873258,24.335688 101.397372,23.604429 C99.9214865,22.8739169 98.6630606,21.9208153 97.6213469,20.7443771 C96.5796333,19.567192 95.7725668,18.2316545 95.2008947,16.735524 C94.6284752,15.2393934 94.3422655,13.7148789 94.3422655,12.1619805 C94.3422655,10.6770541 94.6112877,9.21005437 95.1485848,7.75948742 C95.6866291,6.30892048 96.4705299,5.01371807 97.5010342,3.87163936 C98.5307914,2.7288137 99.8011738,1.80409595 101.312182,1.09599221 C102.822442,0.388635417 104.561372,0.0345835476 106.530465,0.0345835476 C108.910564,0.0345835476 110.912537,0.525326329 112.538627,1.50755884 C114.163222,2.48979135 115.376063,3.76856097 116.177151,5.34386771 L112.538627,7.84538608 C112.217294,7.16043764 111.822729,6.58379619 111.354182,6.11546176 C110.88414,5.64787427 110.374493,5.27589572 109.825986,5.00176695 C109.276733,4.72763818 108.704313,4.5282039 108.109475,4.40271717 C107.51389,4.27723043 106.942218,4.21448706 106.392964,4.21448706 C105.36246,4.21448706 104.447037,4.37956187 103.646696,4.71045845 C102.844861,5.04210198 102.158107,5.48130556 101.586435,6.02881615 C101.014015,6.57782064 100.5507,7.21122989 100.19574,7.9305378 C99.8407799,8.65059266 99.5837143,9.39828448 99.4230482,10.1751071 L109.173607,10.1751071 L109.173607,13.9778035 L99.2862953,13.9778035 C99.4230482,14.8681618 99.6928177,15.7137034 100.093362,16.5121874 C100.493159,17.3129124 101.002806,18.008318 101.62081,18.6021392 C102.238814,19.1967073 102.953964,19.6642948 103.766262,20.0071425 C104.579307,20.3499902 105.477542,20.5210406 106.461715,20.5210406 C107.034134,20.5210406 107.622994,20.4530686 108.229041,20.3156307 C108.835835,20.1789398 109.419464,19.9623258 109.980674,19.6642948 C110.54039,19.3685046 111.056763,18.9853219 111.526057,18.5169875 C111.993857,18.0486531 112.377961,17.4832158 112.676127,16.8214226 L116.55453,19.0480653 Z" id="Fill-23" fill="#003999"></path>
                        <polygon id="Fill-25" fill="#003999" points="139.729071 24.4954596 139.729071 8.39282198 133.446656 20.384275 130.870769 20.384275 124.589101 8.39282198 124.589101 24.4954596 119.850575 24.4954596 119.850575 0.171199765 124.932104 0.171199765 132.142646 14.0120883 139.420443 0.171199765 144.467598 0.171199765 144.467598 24.4954596"></polygon>
                        <path d="M153.015255,12.3335537 C153.015255,13.3837582 153.175173,14.4003502 153.495758,15.3818358 C153.816343,16.3640683 154.278912,17.2327652 154.886453,17.9856856 C155.4925,18.739353 156.236795,19.3451253 157.117843,19.8015086 C157.998143,20.2586388 159.000251,20.486457 160.121924,20.486457 C161.266015,20.486457 162.278585,20.2534102 163.159632,19.7850758 C164.041427,19.3167414 164.784975,18.6945363 165.391769,17.9177136 C165.997816,17.1416379 166.455901,16.2677124 166.76453,15.2966841 C167.073158,14.3256557 167.22934,13.3389415 167.22934,12.3335537 C167.22934,11.2833493 167.062696,10.2660103 166.730902,9.28452477 C166.39836,8.30303921 165.929066,7.43359538 165.323766,6.68067494 C164.716225,5.92700757 163.972677,5.32721083 163.090882,4.88128475 C162.210582,4.43685255 161.220431,4.21426297 160.121924,4.21426297 C158.977832,4.21426297 157.958537,4.44805672 157.06628,4.91564421 C156.174023,5.38397864 155.428981,6.00095511 154.834891,6.76582666 C154.240053,7.53144515 153.787946,8.39864815 153.478571,9.36967649 C153.169942,10.3407048 153.015255,11.3281659 153.015255,12.3335537 M160.087549,24.6671075 C158.30154,24.6671075 156.682924,24.3190312 155.230204,23.6213847 C153.77599,22.925232 152.528773,21.9997673 151.487059,20.8464845 C150.446093,19.6939485 149.638279,18.3748439 149.067354,16.8899175 C148.494187,15.4049911 148.207978,13.8864521 148.207978,12.3335537 C148.207978,10.7111895 148.512122,9.15903803 149.118169,7.67411163 C149.724964,6.18918522 150.561175,4.87680308 151.625307,3.73397742 C152.688692,2.59189871 153.953843,1.68436069 155.418519,1.01061641 C156.883196,0.336872138 158.474163,0 160.190674,0 C161.952769,0 163.560177,0.360027429 165.014391,1.07933534 C166.467111,1.79864325 167.709096,2.74054074 168.739601,3.90577474 C169.769358,5.0702618 170.569699,6.395342 171.142865,7.87952147 C171.71379,9.36370093 172,10.8717826 172,12.4015257 C172,14.02389 171.703328,15.5708128 171.107743,17.0437881 C170.512905,18.5167634 169.688651,19.8186883 168.635728,20.9495629 C167.583553,22.0796904 166.324379,22.9827468 164.859703,23.6557441 C163.39428,24.3302353 161.804807,24.6671075 160.087549,24.6671075" id="Fill-27" fill="#003999"></path>
                        <path d="M20.2555763,48.5290084 L25.7496069,48.5290084 C26.618698,48.5290084 27.3450579,48.1749565 27.9294338,47.4675997 C28.5130625,46.7602429 28.8045032,45.8011657 28.8045032,44.5896211 C28.8045032,43.9726447 28.7125873,43.4191585 28.5295027,42.9276688 C28.3464182,42.437673 28.1057928,42.0201308 27.8083738,41.6772831 C27.5109549,41.3351823 27.1619733,41.0774863 26.7614292,40.9071829 C26.3608851,40.7353856 25.95511,40.6494869 25.5426093,40.6494869 L20.2555763,40.6494869 L20.2555763,48.5290084 Z M15.5177969,60.8282027 L15.5177969,36.5039429 L25.8519848,36.5039429 C26.9729105,36.5039429 28.0086459,36.7392305 28.9584436,37.206818 C29.9082414,37.6751525 30.7272644,38.291382 31.4140183,39.0562535 C32.1007721,39.822619 32.6373219,40.6905689 33.027404,41.6608503 C33.4159916,42.6311317 33.6110327,43.6073886 33.6110327,44.5896211 C33.6110327,45.6174173 33.4272009,46.6160826 33.0617791,47.5871109 C32.6948627,48.5581393 32.1807315,49.4193667 31.5163961,50.173781 C30.8528081,50.9274484 30.0509726,51.5324737 29.1138787,51.989604 C28.1745429,52.4467343 27.1447858,52.6752994 26.0238601,52.6752994 L20.2555763,52.6752994 L20.2555763,60.8282027 L15.5177969,60.8282027 Z" id="Fill-29" fill="#003999"></path>
                        <path d="M49.3004059,51.440973 L45.9361342,41.8830664 L42.4343622,51.440973 L49.3004059,51.440973 Z M43.8414976,36.5043164 L48.0300234,36.5043164 L57.2993319,60.8278292 L52.4247996,60.8278292 L50.1582877,54.7641307 L41.6444832,54.7641307 L39.4130937,60.8278292 L34.5370668,60.8278292 L43.8414976,36.5043164 Z" id="Fill-31" fill="#003999"></path>
                        <g id="Group-35" transform="translate(58.020685, 36.298682)">
                            <mask id="mask-2" fill="white">
                                <use xlink:href="#path-1"></use>
                            </mask>
                            <g id="Clip-34"></g>
                            <path d="M0.549253607,3.32390468 C1.53267911,2.22664267 2.66630867,1.39977469 3.94790041,0.839566037 C5.22949216,0.280104327 6.76291856,0 8.5481796,0 C10.8826943,0 12.7314744,0.513898073 14.0930255,1.54169422 C15.4545767,2.56949036 16.1353522,4.07757206 16.1353522,6.06369848 C16.1353522,7.29690446 15.831955,8.41134622 15.2259078,9.4047829 C14.6191133,10.3982196 13.6640846,11.1003478 12.3593271,11.5119144 C13.8695877,11.8077046 15.0375923,12.4762202 15.8610991,13.5152205 C16.6853531,14.5549678 17.0971065,15.839713 17.0971065,17.3694561 C17.0971065,18.5122817 16.8744159,19.5341023 16.4275402,20.4356648 C15.9806645,21.3387211 15.368639,22.1035927 14.5907166,22.7310264 C13.8127941,23.359207 12.8794366,23.8447212 11.7928859,24.1875689 C10.705588,24.5296696 9.53235239,24.701467 8.27392644,24.701467 C6.51108391,24.701467 4.955239,24.4094115 3.60489714,23.8275414 C2.253808,23.2449244 1.05217562,22.3709989 0,21.2065119 L2.74626803,17.9177136 C3.43227458,18.7169446 4.20571333,19.3451253 5.06359516,19.8022555 C5.92147698,20.2593858 6.95721235,20.487204 8.17080128,20.487204 C9.38364291,20.487204 10.379025,20.1675116 11.1576947,19.5273798 C11.9348699,18.8887419 12.324952,17.9983837 12.324952,16.855558 C12.324952,15.8053535 11.9184296,14.9374036 11.1061321,14.2517082 C10.2930873,13.5667597 9.06380544,13.224659 7.41529733,13.224659 L4.87453235,13.224659 L4.87453235,9.72970392 L7.14104417,9.72970392 C8.60497317,9.72970392 9.72664619,9.46229765 10.5053159,8.92449734 C11.2832384,8.38819092 11.6725733,7.62929493 11.6725733,6.64631548 C11.6725733,5.77836554 11.3803853,5.11657238 10.7975039,4.65944212 C10.2138752,4.2030588 9.38364291,3.97374672 8.3083015,3.97374672 C7.23146551,3.97374672 6.27643679,4.1746749 5.44172077,4.57354346 C4.60551018,4.97315896 3.86719376,5.53934318 3.22677153,6.26910832 L0.549253607,3.32390468 Z" id="Fill-33" fill="#003999" mask="url(#mask-2)"></path>
                        </g>
                        <g id="Group-38" transform="translate(77.383108, 36.333341)">
                            <mask id="mask-4" fill="white">
                                <use xlink:href="#path-3"></use>
                            </mask>
                            <g id="Clip-37"></g>
                            <path d="M4.80652952,12.3328068 C4.80652952,13.3837582 4.96719554,14.4010972 5.2877803,15.3818358 C5.60761778,16.3640683 6.07093374,17.2327652 6.67772821,17.9856856 C7.28377538,18.739353 8.02881735,19.3451253 8.90911769,19.8015086 C9.79091259,20.2586388 10.7922729,20.486457 11.9139459,20.486457 C13.0580375,20.486457 14.0698597,20.2534102 14.9516546,19.7850758 C15.8327023,19.3167414 16.576997,18.6945363 17.1830441,17.9177136 C17.7898386,17.1408909 18.2479236,16.2677124 18.5565518,15.2966841 C18.8659273,14.3256557 19.020615,13.3389415 19.020615,12.3328068 C19.020615,11.2826023 18.8539707,10.2660103 18.5221767,9.28377783 C18.1903827,8.30229226 17.7210885,7.43359538 17.1150413,6.68067494 C16.5082468,5.92700757 15.7639522,5.32721083 14.8829045,4.88128475 C14.0018569,4.43685255 13.0117059,4.21351603 11.9139459,4.21351603 C10.7691071,4.21351603 9.75055927,4.44730977 8.85830239,4.91639115 C7.96604551,5.38397864 7.22100354,6.00095511 6.62691291,6.76582666 C6.0313277,7.53144515 5.57922099,8.39864815 5.27059277,9.36967649 C4.96121727,10.3407048 4.80652952,11.3281659 4.80652952,12.3328068 M11.8795709,24.6671075 C10.0943098,24.6671075 8.47419851,24.3182842 7.02147876,23.6213847 C5.56801173,22.925232 4.32079504,21.9997673 3.2790814,20.8457375 C2.23736775,19.6932016 1.43030123,18.3740969 0.858629108,16.8899175 C0.286209703,15.4049911 0,13.8864521 0,12.3328068 C0,10.7119364 0.30339723,9.15903803 0.910191691,7.67411163 C1.51623887,6.18918522 2.35244946,4.87680308 3.41658162,3.73397742 C4.48071378,2.59264565 5.745118,1.68436069 7.21054157,1.01061641 C8.67447057,0.336872138 10.2661851,0 11.982696,0 C13.7447913,0 15.3521988,0.359280484 16.8064131,1.07933534 C18.2591328,1.79789631 19.5011185,2.73979379 20.5308756,3.90577474 C21.5606327,5.0702618 22.361721,6.395342 22.9341404,7.87877452 C23.5058125,9.36370093 23.7920222,10.8717826 23.7920222,12.4015257 C23.7920222,14.02389 23.4946033,15.5708128 22.8997653,17.0437881 C22.3041801,18.5167634 21.4799261,19.8186883 20.4277505,20.9495629 C19.3748276,22.0796904 18.1164016,22.9819999 16.6517253,23.6557441 C15.1870491,24.3302353 13.5960818,24.6671075 11.8795709,24.6671075" id="Fill-36" fill="#003999" mask="url(#mask-4)"></path>
                        </g>
                        <polygon id="Fill-39" fill="#003999" points="124.7615 60.8280533 124.7615 44.7261627 118.479085 56.7168687 115.903197 56.7168687 109.620782 44.7261627 109.620782 60.8280533 104.883003 60.8280533 104.883003 36.5045404 109.964533 36.5045404 117.174327 50.3454289 124.452871 36.5045404 129.499279 36.5045404 129.499279 60.8280533"></polygon>
                    </g>
                </g>
            </g>
        </g>
    </g>
</svg>