<?xml version="1.0" encoding="UTF-8"?>
<svg width="250px" height="250px" viewBox="0 0 250 250" version="1.1" xmlns="http://www.w3.org/2000/svg" xmlns:xlink="http://www.w3.org/1999/xlink">
    <title>Group 15</title>
    <g id="Homepage" stroke="none" stroke-width="1" fill="none" fill-rule="evenodd">
        <g id="project-page---final" transform="translate(-568.000000, -3071.000000)">
            <g id="Info" transform="translate(301.000000, 1392.000000)">
                <g id="Group-15" transform="translate(267.000000, 1679.000000)">
                    <polygon id="Fill-1" fill="#D2F602" points="0 98.2363334 151.763266 250 250 151.763006 98.2367342 0"></polygon>
                    <path d="M184,98.7242512 L120.276225,35 L96,59.2757488 L159.724432,123 L184,98.7242512 Z M178.991945,98.7242512 L159.724432,117.991907 L101.008055,59.2757488 L120.276225,40.0080927 L178.991945,98.7242512 Z" id="Fill-2" fill="#000000"></path>
                    <polygon id="Fill-3" fill="#000000" points="176.389881 139 167 129.610119 191.610119 105 194.144276 107.534822 172.06898 129.610119 176.389881 133.93102 198.465178 111.855724 201 114.389881"></polygon>
                    <polygon id="Fill-4" fill="#000000" points="111.515948 26.4372003 104.931778 33.0213704 94.9786296 23.0675701 101.5628 16.4840515 99.0787482 14 91.290999 21.7877492 90.0111781 23.0675701 75 38.0787482 77.4833999 40.5627997 92.4952297 25.5516216 102.448378 35.5047703 87.4372003 50.5159485 89.9206002 53 104.931778 37.9888219 106.211599 36.709001 114 28.9212518"></polygon>
                    <polygon id="Fill-5" fill="#000000" points="51.4774802 136 36 120.522926 60.5218572 96 63.0476569 98.5251789 41.0509367 120.522926 51.4774802 130.94898 73.4742003 108.951895 76 111.477074"></polygon>
                    <polygon id="Fill-6" fill="#000000" points="51.4679508 92.9106956 54 90.3786885 38.6210561 75 29.4174693 84.2047625 28.1122551 85.5086266 14 99.6219757 29.3782796 115 31.9103288 112.467993 19.0634341 99.6219757 30.64364 88.0406337 43.4911989 100.887315 44.7957489 99.5827867 46.0232481 98.3553079 33.1756891 85.5086266 38.6210561 80.06335"></polygon>
                    <polygon id="Fill-7" fill="#000000" points="233.467951 152.910031 236 150.378024 220.621056 135 203.440053 152.180718 202.135503 153.485246 196 159.621312 211.37828 175 213.910329 172.467993 201.063434 159.621312 204.667552 156.017253 217.514447 168.863935 218.818997 167.559406 220.046496 166.331927 207.198937 153.485246 220.621056 140.06335"></polygon>
                    <polygon id="Fill-8" fill="#000000" points="200.814472 143.422503 194.068552 136.691914 205.709671 125.077918 212.455592 131.807841 215 129.269215 205.709671 120 190.212882 135.46157 190.252273 135.500206 189.018459 136.73055 195.764379 143.461139 190.290329 148.922082 183.545076 142.191493 181 144.730785 190.290329 154 200.853864 143.461139"></polygon>
                    <polygon id="Fill-9" fill="#000000" points="160.359674 140.087383 203.490973 183.820328 206 181.27697 160.359674 135 148.464834 147.060763 143.866049 151.723697 136 159.69947 138.509027 162.242828 146.375075 154.267055 189.506375 198 192.015402 195.456642 148.883444 151.723697 150.973202 149.604121"></polygon>
                    <path d="M135.591182,203.949089 L116.114745,184.439173 L117.603723,182.947686 L129.481148,171.050249 L148.957585,190.560165 L135.591182,203.949089 Z M154,190.560165 L129.481148,166 L115.082185,180.421899 L111.07233,184.439173 L105,190.521072 L107.520877,193.046859 L113.593207,186.964297 L135.591182,209 L154,190.560165 Z" id="Fill-10" fill="#000000"></path>
                    <polygon id="Fill-11" fill="#000000" points="172.467993 213.910696 175 211.378688 159.621312 196 148.575995 207.044652 147.271467 208.349181 135 220.621976 150.378688 236 152.910696 233.467993 140.06335 220.621976 149.803474 210.880523 162.650819 223.727869 163.955348 222.423341 165.182162 221.196526 152.334817 208.349181 159.621312 201.06335"></polygon>
                    <path d="M154,129.555115 L68.4448855,44 L44,68.4442239 L129.555776,154 L154,129.555115 Z M148.957151,129.555115 L129.555776,148.957151 L49.0428492,68.4442239 L68.4448855,49.0428492 L148.957151,129.555115 Z" id="Fill-12" fill="#000000"></path>
                    <path d="M124,160.5 L99.5,136 L75,160.5 L99.5,185 L124,160.5 Z M118.945644,160.5 L99.5,179.945644 L80.0543558,160.5 L99.5,141.054356 L118.945644,160.5 Z" id="Fill-13" fill="#000000"></path>
                    <path d="M70.4770123,137.901297 L67.5450086,134.90475 L70.2145517,132.177047 L80.1033886,122.072768 L83.0353923,125.069315 L70.4770123,137.901297 Z M72.9596418,140.438014 L88,125.069315 L80.1033886,117 L67.7319223,129.640996 L62.5804009,134.90475 L56,141.628514 L58.4826295,144.164565 L65.0630304,137.441467 L68.6345782,141.090826 L70.4770123,142.974065 L72.206126,144.740185 L65.6263763,151.463948 L68.1083545,154 L77.1707337,144.740185 L72.9596418,140.438014 Z" id="Fill-14" fill="#000000"></path>
                </g>
            </g>
        </g>
    </g>
</svg>